<svg width="131" height="19" viewBox="0 0 131 19" fill="none" xmlns="http://www.w3.org/2000/svg">
<path d="M0.536 18V1.08H3.776L11.552 10.776V1.08H15.632V18H12.416L4.64 8.304V18H0.536ZM18.7235 18V1.08H30.6755V4.488H22.9475V7.704H30.1235V11.112H22.9475V14.592H30.6755V18H18.7235ZM31.2828 18L37.7628 9.456L31.4268 1.08H36.5388L40.2588 6.264L43.9788 1.08H49.1148L42.7788 9.456L49.2348 18H44.0988L40.2588 12.672L36.4188 18H31.2828ZM54.1606 18V4.68H48.7846V1.08H63.9526V4.68H58.5766V18H54.1606ZM66.1739 18V1.08H72.9419C74.6859 1.08 76.0299 1.472 76.9739 2.256C77.9339 3.024 78.4139 4.104 78.4139 5.496C78.4139 6.424 78.1739 7.216 77.6939 7.872C77.2139 8.528 76.5499 9.008 75.7019 9.312C76.6779 9.568 77.4379 10.04 77.9819 10.728C78.5419 11.416 78.8219 12.288 78.8219 13.344C78.8219 14.848 78.3339 16 77.3579 16.8C76.3819 17.6 75.0059 18 73.2299 18H66.1739ZM68.0939 8.64H72.6539C75.1979 8.64 76.4699 7.648 76.4699 5.664C76.4699 3.664 75.1979 2.664 72.6539 2.664H68.0939V8.64ZM68.0939 16.416H73.0379C75.5979 16.416 76.8779 15.384 76.8779 13.32C76.8779 11.256 75.5979 10.224 73.0379 10.224H68.0939V16.416ZM82.3927 18V1.08H84.3607V16.272H92.9767V18H82.3927ZM95.4239 18V1.08H97.3919V18H95.4239ZM108.885 18.216C107.221 18.216 105.797 17.864 104.613 17.16C103.429 16.456 102.517 15.456 101.877 14.16C101.253 12.864 100.941 11.32 100.941 9.528C100.941 7.752 101.253 6.216 101.877 4.92C102.517 3.624 103.429 2.624 104.613 1.92C105.797 1.216 107.221 0.863999 108.885 0.863999C110.053 0.863999 111.125 1.048 112.101 1.416C113.093 1.784 113.933 2.32 114.621 3.024L113.853 4.632C113.117 3.944 112.349 3.448 111.549 3.144C110.765 2.824 109.893 2.664 108.933 2.664C107.029 2.664 105.573 3.264 104.565 4.464C103.557 5.664 103.053 7.352 103.053 9.528C103.053 11.72 103.557 13.416 104.565 14.616C105.573 15.816 107.029 16.416 108.933 16.416C109.893 16.416 110.765 16.264 111.549 15.96C112.349 15.64 113.117 15.136 113.853 14.448L114.621 16.056C113.933 16.744 113.093 17.28 112.101 17.664C111.125 18.032 110.053 18.216 108.885 18.216ZM117.713 18V1.08H119.681V8.76H119.729L127.937 1.08H130.457L121.625 9.312L130.985 18H128.393L119.729 10.032H119.681V18H117.713Z" fill="white"/>
</svg>
