<svg xmlns="http://www.w3.org/2000/svg" width="64" height="64" viewBox="0 0 64 64">
  <g fill="none" fill-rule="evenodd">
    <rect width="64" height="64" fill="#040C26"/>
    <g fill="#FFF" fill-rule="nonzero" transform="translate(11 20)">
      <path d="M41.8438125,11.99475 C41.5130625,11.5058333 33.5645625,0.0551666667 20.9995898,0.0551666667 C10.2178125,0.0551666667 0.6103125,11.4400833 0.2060625,11.9254167 C-0.0686601563,12.2560833 -0.0686601563,12.7414167 0.2060625,13.0738333 C0.6103125,13.5591667 10.2178125,24.9440833 20.9995898,24.9440833 C31.7813672,24.9440833 41.3887852,13.5591667 41.7930352,13.0738333 C42.0468398,12.7680833 42.0695625,12.3254167 41.8438125,11.99475 Z M20.9995898,23.1663333 C12.3563672,23.1663333 4.1383125,14.793 2.05061719,12.4996667 C4.13486719,10.2045833 12.3441445,1.833 20.9995898,1.833 C31.1128125,1.833 38.2510898,10.1939167 39.9940898,12.4516667 C37.9815352,14.6720833 29.7163125,23.1663333 20.9995898,23.1663333 Z"/>
      <path d="M20.9995898,5.3885 C17.1391172,5.3885 13.9996172,8.57783333 13.9996172,12.4995833 C13.9996172,16.4213333 17.1391172,19.6106667 20.9995898,19.6106667 C24.8600625,19.6106667 27.9995625,16.4213333 27.9995625,12.4995833 C27.9995625,8.57783333 24.8600625,5.3885 20.9995898,5.3885 Z M20.9995898,17.833 C18.1051172,17.833 15.7495898,15.4400833 15.7495898,12.4996667 C15.7495898,9.55925 18.1051172,7.16633333 20.9995898,7.16633333 C23.8940625,7.16633333 26.2495898,9.55925 26.2495898,12.4996667 C26.2495898,15.4400833 23.8940625,17.833 20.9995898,17.833 Z"/>
    </g>
  </g>
</svg>
