<?xml version="1.0" standalone="no"?>
<!DOCTYPE svg PUBLIC "-//W3C//DTD SVG 20010904//EN"
 "http://www.w3.org/TR/2001/REC-SVG-20010904/DTD/svg10.dtd">
<svg version="1.0" xmlns="http://www.w3.org/2000/svg"
 width="700.000000pt" height="700.000000pt" viewBox="0 0 700.000000 700.000000"
 preserveAspectRatio="xMidYMid meet">
<metadata>
Created by potrace 1.14, written by Peter Selinger 2001-2017
</metadata>
<g transform="translate(0.000000,700.000000) scale(0.100000,-0.100000)"
fill="#000000" stroke="none">
<path d="M0 3500 l0 -3500 3500 0 3500 0 0 3500 0 3500 -3500 0 -3500 0 0
-3500z m3760 1290 c578 -72 1123 -352 1614 -830 152 -148 315 -332 384 -432
23 -33 32 -58 32 -87 0 -36 -8 -49 -93 -143 -402 -443 -932 -839 -1377 -1027
-283 -119 -500 -170 -765 -178 -306 -9 -549 41 -881 181 -438 185 -971 583
-1371 1024 -87 97 -93 106 -93 147 0 40 6 50 83 137 124 138 359 361 519 492
509 416 1007 657 1483 719 67 9 386 6 465 -3z"/>
<path d="M3252 4594 c-422 -68 -894 -313 -1372 -713 -135 -113 -450 -418 -450
-436 0 -7 78 -89 173 -181 546 -532 1092 -858 1607 -959 130 -26 371 -31 508
-11 535 79 1110 412 1686 977 l180 176 -65 79 c-96 119 -380 399 -504 498
-296 237 -632 418 -938 506 -201 57 -305 72 -527 76 -148 2 -231 -1 -298 -12z
m463 -404 c204 -64 371 -206 465 -395 55 -111 72 -181 77 -320 4 -100 1 -135
-16 -210 -67 -278 -276 -496 -551 -571 -90 -25 -290 -25 -380 -1 -212 58 -391
205 -489 402 -64 126 -76 186 -76 360 1 137 3 157 29 230 96 279 318 475 594
525 81 15 269 4 347 -20z"/>
<path d="M3366 4014 c-79 -19 -188 -78 -252 -137 -166 -151 -231 -400 -160
-612 114 -337 479 -498 790 -346 433 211 442 821 16 1045 -120 63 -264 82
-394 50z"/>
</g>
</svg>
