<svg id="eee424db-fcfe-4340-ad6c-3fbe5a72b87d" data-name="Ebene 1" xmlns="http://www.w3.org/2000/svg" viewBox="0 0 2000 800"><defs><style>.e1bb7d7d-83d2-41c1-90a0-25ed7a0f24f7{fill:#fff}</style></defs><path fill="#000822" d="M0 0h2000v800H0z"/><path class="e1bb7d7d-83d2-41c1-90a0-25ed7a0f24f7" d="M479.08 526.71h-49V433c0-13.86.69-46.31.69-56.15-3.49 9.48-10.84 27.71-17.13 42.29L364 532.55l-49.65-113.41c-6.29-14.58-13.64-32.81-17.14-42.29 0 9.84.7 42.29.7 56.15v93.71H250V271.47h47.21l51.07 115.59c6.29 14.22 13.64 33.54 16.78 42.66 3.15-9.48 10.15-28.08 16.44-42.66l49.31-115.59h48.27zM740.32 444.3c0 53.61-34.62 82.41-87.08 82.41H542V271.47h112.29c47.56 0 77.64 23.7 77.64 67.45 0 21.88-9.79 39.38-25.88 49.59 19.59 9.12 34.27 27.72 34.27 55.79zm-58.05-101.37c0-16-8.75-24.43-30.08-24.43h-62.25V367h64.7c20.28 0 27.63-9.85 27.63-24.07zM690 445c0-21.88-11.19-32.81-35-32.81h-65v66h65c23.77.03 35-13.1 35-33.19zM1019.41 526.71h-49V433c0-13.86.7-46.31.7-56.15-3.5 9.48-10.85 27.71-17.14 42.29l-49.62 113.41-49.67-113.41c-6.29-14.58-13.64-32.81-17.13-42.29 0 9.84.7 42.29.7 56.15v93.71h-47.92V271.47h47.22l51.06 115.59c6.29 14.22 13.64 33.54 16.78 42.66 3.15-9.48 10.15-28.08 16.44-42.66l49.32-115.59h48.26zM1291.5 526.71h-56l-18.5-20.78c-19.23 16.41-42.66 24.79-71.34 24.79-50 0-80.44-21.87-80.44-67.82 0-35.73 18.88-57.25 50-73.29l-6.29-7.3c-13-14.95-21.34-31.35-21.34-51.77 0-41.57 31.48-63.09 72.75-63.09 30.07 0 49.66 9.48 73.09 26.62L1210 330.9c-16.09-12.76-33.58-18.23-51.06-18.23-14.34 0-23.09 6.2-23.09 16.77 0 10.94 5.25 18.23 12.94 27.71l67.5 80.23a431.47 431.47 0 0017.14-42.3L1273 408.2c-7.69 24.8-16.79 46.31-27.63 63.82zM1189 474.2l-47.91-54.69c-19.23 10.57-26.93 23.7-26.93 39 0 16.41 12.59 27 37.07 27 15.06 0 27.65-3.65 37.77-11.31zM1507.28 324l-45.46 21.88c-8.75-17.5-22.74-27.71-44.77-27.71-36.72 0-57.71 33.55-57.71 80.95 0 45.94 21.34 81 58.06 81 22 0 35-9.85 47.91-32.45l41.27 25.52c-16.78 36.1-46.16 57.61-90.58 57.61-64 0-107-51.05-107-131.63 0-77.67 44.77-131.64 108.77-131.64 46.14-.08 74.12 23.26 89.51 56.47zM1750 398.72c0 82.41-44.42 132-108.07 132-64 0-107.72-48.86-107.72-131.27s44.42-132 108.42-132c63.65 0 107.37 48.87 107.37 131.27zm-50.36.73c0-51.78-23.78-81.31-58.06-81.31s-57 28.8-57 80.58 23.78 81.28 58.05 81.28 57.01-28.77 57.01-80.55z"/></svg>